<?xml version="1.0" encoding="UTF-8"?>
<svg width="741px" height="119px" viewBox="0 0 741 119" version="1.1" xmlns="http://www.w3.org/2000/svg" xmlns:xlink="http://www.w3.org/1999/xlink">
    <!-- Generator: Sketch 58 (84663) - https://sketch.com -->
    <title>ContactUs</title>
    <desc>Created with Sketch.</desc>
    <g id="Page-1" stroke="none" stroke-width="1" fill="none" fill-rule="evenodd">
        <g id="contact-form-2" transform="translate(-408.000000, -193.000000)" fill-rule="nonzero" stroke="#D1D1E2" stroke-width="1.79999995">
            <path d="M493.430449,234.391073 L514.419701,226.66038 L514.238174,226.212419 C511.090396,218.542459 498.90028,193.84752 465.339571,194.00071 C434.408042,194.00071 409,220.034072 409,252.218997 C409,284.403921 434.408042,310.120306 465.339571,310.120306 C488.22259,310.120306 507.791517,298.603152 516.313468,279.670844 L495.48203,269.889151 C490.589799,280.144151 479.227196,287.874844 465.339571,287.874844 C445.928458,287.874844 431.883019,273.044536 431.883019,252.218997 C431.883019,231.235688 445.928458,215.774303 465.339571,215.774303 C479.227196,215.774303 489.642915,224.293842 493.430449,234.391073 Z M598.117998,270.646861 C598.117998,248.541732 581.056987,230.06816 559.572752,230.06816 C537.930544,230.06816 520.711561,248.541732 520.711561,270.646861 C520.711561,292.120415 538.404461,310.120306 559.572752,310.120306 C581.056987,310.120306 598.117998,292.75199 598.117998,270.646861 Z M577.88677,271.44735 C577.88677,282.809503 571.198635,291.646734 559.574021,291.646734 C548.108647,291.646734 540.942789,282.020465 540.942789,271.44735 C540.942789,260.085197 547.790165,250.30112 559.574021,250.30112 C571.039394,250.30112 577.88677,259.927389 577.88677,271.44735 Z M651.041899,230.080159 L650.533552,230.073088 C642.143898,229.91525 633.754243,233.545532 627.739019,241.437451 L627.739019,232.598502 L607.952098,232.598502 L607.793802,308.360918 L627.897314,308.360918 L627.739019,267.796458 C628.847086,252.643975 639.769467,247.119632 649.267189,248.2245 C658.13173,249.013692 665.096726,255.642904 665.096726,269.848357 L665.096726,308.360918 L685.200238,308.360918 L685.200238,268.743488 C685.200238,238.429051 667.823966,230.391038 651.041899,230.080159 L651.041899,230.080159 Z M736.218117,250.053358 L736.218117,233.074709 L721.514688,233.074709 L721.514688,208.955506 L700.803407,208.955506 L700.803407,233.074709 L687.839094,233.074709 L687.839094,250.053358 L700.803407,250.053358 L700.803407,287.818952 C700.803407,300.072142 705.761973,308.903864 717.366565,309.079273 L736.218117,309.240612 L736.218117,290.516494 L728.945453,290.357815 L727.952326,290.354643 C724.336393,290.319225 721.67279,289.888299 721.67279,284.645373 L721.67279,250.053358 L736.218117,250.053358 Z M779.674627,230.06816 L779.155991,230.069772 C766.45334,230.069772 753.591907,234.017037 744.541268,249.332425 L759.784449,257.858517 C764.865509,249.648206 771.534401,247.595628 779.155991,247.91141 C785.030967,248.227191 790.112027,249.963987 791.382292,256.121721 C791.699858,258.963752 789.635677,260.226876 787.095147,260.226876 L775.980328,260.226876 L774.072858,260.264863 C766.103755,260.445731 759.879719,260.930207 755.020955,263.85836 C747.399365,268.595078 742.953437,276.647499 743.271003,285.647263 C743.271003,300.331089 755.497304,310.120306 773.122232,310.120306 C780.426256,310.120306 786.777581,307.278275 791.541075,303.17312 L791.541075,309.172962 L811.865316,309.172962 L811.865316,259.595314 C811.865316,240.368976 796.769851,230.118055 779.674627,230.06816 L779.674627,230.06816 Z M772.783504,293.362432 L772.312608,293.345261 C766.916777,293.103454 762.226456,291.313686 761.760704,286.089381 C761.286497,280.613789 765.817257,276.066989 775.817262,275.971873 L779.974782,275.967883 C783.906147,275.960471 788.039697,275.930826 791.634088,275.812243 L791.634088,280.081208 C790.675584,290.516456 782.368547,293.836762 772.783504,293.362432 Z M893.669845,253.705605 C888.790277,239.365555 874.781193,230.06816 858.411028,230.06816 C836.846484,230.06816 818.902265,248.190201 818.902265,270.566982 C818.902265,292.943763 836.846484,310.120306 858.411028,310.120306 C873.994166,310.120306 886.901411,302.398741 892.095791,289.319355 L874.623788,282.228121 L874.527127,282.488312 C873.012688,286.438774 868.573944,292.471014 858.411028,292.471014 C845.346377,292.471014 839.207565,282.543287 839.207565,270.566982 C839.207565,258.590677 845.346377,248.190201 858.411028,248.190201 C868.799787,248.190201 873.364544,254.49352 875.56822,260.324089 L893.669845,253.705605 Z M942.048868,250.053358 L942.048868,233.074709 L927.345439,233.074709 L927.345439,208.955506 L906.634158,208.955506 L906.634158,233.074709 L893.669845,233.074709 L893.669845,250.053358 L906.634158,250.053358 L906.634158,287.818952 C906.634158,300.072142 911.592724,308.903864 923.197316,309.079273 L942.048868,309.240612 L942.048868,290.516494 L934.776204,290.357815 L933.783077,290.354643 C930.167144,290.319225 927.503541,289.888299 927.503541,284.645373 L927.503541,250.053358 L942.048868,250.053358 Z M1055.09454,196.639791 L1055.09454,267.83926 C1055.09454,282.016145 1042.00693,290.364756 1030.8115,290.364756 C1019.77376,290.364756 1006.68615,282.016145 1006.68615,267.83926 L1006.68615,196.639791 L986.029797,196.639791 L986.029797,267.83926 C986.029797,294.302779 1007.47456,311 1030.8115,311 C1054.30613,311 1075.75089,294.302779 1075.75089,267.83926 L1075.75089,196.639791 L1055.09454,196.639791 Z M1147,250.238779 L1128.05437,254.49352 C1126.79133,250.238779 1123.0022,247.402286 1116.52911,247.402286 C1111.47694,247.402286 1108.47722,249.923614 1107.68782,252.602524 C1107.06778,255.232727 1108.57842,258.014835 1112.66801,259.159133 L1115.22061,259.858303 C1119.11042,260.915275 1123.0314,261.933359 1126.05822,262.718116 L1128.37013,263.318166 C1142.10571,266.784991 1146.36848,275.294471 1146.36848,286.167695 C1146.36848,300.507745 1134.2117,310.120306 1117.63427,310.120306 C1101.3726,310.120306 1087.63702,301.138077 1085.4267,288.058691 L1104.84597,284.907032 C1105.63537,289.161772 1110.52966,292.78618 1117.63427,292.78618 C1123.63372,292.78618 1126.94921,290.737601 1126.94921,286.640444 C1126.94921,284.473679 1125.57858,282.610923 1120.89288,281.500051 L1119.2947,281.122356 C1111.94043,279.358898 1106.70495,277.80692 1106.10901,277.658215 C1095.05739,274.506556 1088.42642,265.839493 1088.42642,254.966268 C1088.42642,240.941385 1100.74108,230.06816 1116.52911,230.06816 C1131.8435,230.06816 1144.00028,237.947308 1147,250.238779 Z" id="ContactUs"></path>
        </g>
    </g>
</svg>