<svg id="INTERFACE" xmlns="http://www.w3.org/2000/svg" viewBox="0 0 364 510.08"><defs><style>.cls-1{fill:#1b1b1e;}</style></defs><title>branding</title><path class="cls-1" d="M170.4,80c0,8.32-2.24,19-11,24.64C149.12,111,138.88,112,121.12,112H3.2V0H114.56c10.24,0,27,1.12,37.28,5.92,9.44,5.44,12,13.6,12,21.28,0,7-2.24,16.16-11,21a43.44,43.44,0,0,1-5.6,2.56,54.22,54.22,0,0,1,11.2,4.16C167.84,61.28,170.4,71,170.4,80ZM59.2,37.44l30.24-.16a70.51,70.51,0,0,0,11.68-.64c2.72-.48,3.84-2.24,3.84-3.2s-1-2.24-3.84-2.88c-3.2-.8-8.48-.64-11.68-.64H59.2Zm50.88,36.48c0-1.12-1-2.56-4.16-3.36-3.68-.8-9.44-.64-13.12-.64H59.2v8.32H92.8c4,0,9.28,0,13.12-.8C109,76.8,110.08,74.88,110.08,73.92Z"/><path class="cls-1" d="M324.32,78.88,339.68,112H281.92L268.48,83.2H233.12V112H178.4V0H293.6c9.92,0,26.4,1.6,36.32,9,9.28,8.16,11.68,21,11.68,32.64,0,10.72-2.08,24.8-10.72,32C328.16,75.84,326.24,77.6,324.32,78.88Zm-91.2-31.36h32.8c3.84,0,9.12,0,12.8-1a5.18,5.18,0,0,0,4.16-4.64c0-1.44-1-3.36-4.16-4.32-3.52-1.12-9.12-.8-12.8-.8h-32.8Z"/><path class="cls-1" d="M125.28,229.92H65.92L59.2,244H0L53.12,132h85L191.2,244H132Zm-14.72-31.2L95.68,167.2l-15,31.52Z"/><path class="cls-1" d="M364,132V244H308l-54.4-55.2V244h-56V132h56.16L308,187V132Z"/><path class="cls-1" d="M15.6,263.84h95.84c16,0,41.92,4.64,57.44,14.56C183.6,289,187.6,304.48,187.6,320c0,14.56-5.12,31.2-18.72,41.12-15.52,11.36-40.64,15-57.44,15H15.6ZM105,339.68c5.92,0,14.72-1.28,20.16-5.28,4.8-3.36,6.56-9.28,6.56-14.4,0-5.44-1.44-10.88-6.56-14.56-5.44-3.52-14.56-5.12-20.16-5.12H71.44v39.36Z"/><path class="cls-1" d="M253.2,264V376h-56V264Z"/><path class="cls-1" d="M169.6,396V508h-56L59.2,452.8V508H3.2V396H59.36l54.24,55V396Z"/><path class="cls-1" d="M261.12,449.44H346.4V508h-32v-6.4C297,509,276,510.08,260.8,510.08c-16.16,0-44.64-1.44-62.72-12.48C181.44,487.36,174.4,468.16,174.4,453c0-15.68,6.08-35.2,23.68-45.6s45.44-13,62.72-13c16.32,0,45.12,4.32,61.6,13,18.08,9.44,23.68,25.12,24.16,36.8H292.32c-.8-3.52-3-6.4-7.84-8.8-6.24-3-18.4-4.32-23.84-4.32-5.92,0-17.44.32-24.16,4.32S227.36,447,227.36,453s2.56,13.44,9.12,17.28c7,4.16,17.92,4.8,24.16,4.8,6.72,0,16.48-.48,23.84-4.8a11.25,11.25,0,0,0,2.24-1.6h-25.6Z"/></svg>