<svg id="INTERFACE" xmlns="http://www.w3.org/2000/svg" viewBox="0 0 489.6 640.16"><defs><style>.cls-1{fill:#1b1b1e;}</style></defs><title>development</title><path class="cls-1" d="M3.2,0H99C115,0,141,4.64,156.48,14.56c14.72,10.56,18.72,26.08,18.72,41.6,0,14.56-5.12,31.2-18.72,41.12-15.52,11.36-40.64,15-57.44,15H3.2ZM92.64,75.84c5.92,0,14.72-1.28,20.16-5.28,4.8-3.36,6.56-9.28,6.56-14.4,0-5.44-1.44-10.88-6.56-14.56-5.44-3.52-14.56-5.12-20.16-5.12H59V75.84Z"/><path class="cls-1" d="M247.52,31.36V40h85.92V71.2H247.52V81H335.2v31.2h-152V.16h152v31.2Z"/><path class="cls-1" d="M182.4,132.16l-50.72,112H50.56L0,132.16H56.32L91.2,209l34.72-76.8Z"/><path class="cls-1" d="M251.52,163.36V172h85.92v31.2H251.52V213H339.2v31.2h-152v-112h152v31.2Z"/><path class="cls-1" d="M489.6,202.56v41.6h-144v-112h63.52v70.4Z"/><path class="cls-1" d="M23.84,366.08C7.68,355.68,0,335.68,0,321c0-14.88,7.36-34.88,23.84-45.12,18.08-11.2,43.68-13.28,62.88-13.28,19.36,0,43.36,2.08,61.44,13.28,16.32,10.08,24.16,30.4,24.16,45.12s-8,34.88-24.16,45.12c-18.08,11.52-45,12.48-61.6,12.48S41.92,377.76,23.84,366.08Zm86.24-27.52c6.08-4,9.28-11.68,9.28-17.28,0-5.76-3.2-13.44-9.28-17.44-6.88-4.48-17.28-4.48-23.68-4.48s-17.28.16-24.32,4.48C55.84,307.68,53,315.52,53,321.28c0,5.6,2.88,13.28,9.12,17.28,7,4.48,17.76,4.8,24.16,4.8C92.8,343.36,103,343.2,110.08,338.56Z"/><path class="cls-1" d="M349.12,305.76c0,10.72-2.24,24.8-11,32-10.24,8.32-20.48,9.6-38.24,9.6H237.92v28.8h-56v-112H299.84c10.24,0,27,1.6,37.28,9C346.56,281.28,349.12,294.08,349.12,305.76Zm-60.32.32c0-1.44-1-3.36-4.16-4.32-3.68-1.12-9.44-.8-13.12-.8h-33.6v10.72h33.6c4,0,9.28,0,13.12-1A5.18,5.18,0,0,0,288.8,306.08Z"/><path class="cls-1" d="M184,508.16H128.64V466.72l-25,41.44H82.08L57,466.4v41.76H1.6v-112H57l36,60,35.68-59.68v-.32H184Z"/><path class="cls-1" d="M254.72,427.36V436h85.92v31.2H254.72V477H342.4v31.2h-152v-112h152v31.2Z"/><path class="cls-1" d="M169.6,528.16v112h-56L59.2,585v55.2H3.2v-112H59.36l54.24,55v-55Z"/><path class="cls-1" d="M336,571.36H288.64v68.8h-64v-68.8H176v-43.2H336Z"/></svg>