<svg id="INTERFACE" xmlns="http://www.w3.org/2000/svg" viewBox="0 0 400 510.08"><defs><style>.cls-1{isolation:isolate;}.cls-2{fill:#1b1b1e;}</style></defs><title>interface</title><g class="cls-1"><path class="cls-2" d="M57.6,0V112H1.6V0Z"/><path class="cls-2" d="M233.6,0V112h-56L123.2,56.8V112h-56V0h56.16L177.6,55V0Z"/><path class="cls-2" d="M400,43.2H352.64V112h-64V43.2H240V0H400Z"/></g><g class="cls-1"><path class="cls-2" d="M64.32,163.2v8.64h85.92V203H64.32v9.76H152V244H0V132H152v31.2Z"/><path class="cls-2" d="M304.32,210.88,319.68,244H261.92l-13.44-28.8H213.12V244H158.4V132H273.6c9.92,0,26.4,1.6,36.32,9,9.28,8.16,11.68,21,11.68,32.64,0,10.72-2.08,24.8-10.72,32C308.16,207.84,306.24,209.6,304.32,210.88Zm-91.2-31.36h32.8c3.84,0,9.12,0,12.8-1a5.18,5.18,0,0,0,4.16-4.64c0-1.44-1-3.36-4.16-4.32-3.52-1.12-9.12-.8-12.8-.8h-32.8Z"/></g><g class="cls-1"><path class="cls-2" d="M64.32,295.2v8.64h85.92V335H64.32v41H0V264H152v31.2Z"/><path class="cls-2" d="M282.08,361.92H222.72L216,376H156.8l53.12-112h85L348,376H288.8Zm-14.72-31.2L252.48,299.2l-15,31.52Z"/></g><g class="cls-1"><path class="cls-2" d="M23.68,407.36c17.6-10.4,45.44-13,62.72-13,16.32,0,45.12,4.32,61.6,13,18.08,9.44,23.36,25,24.16,40.64H119c-.8-5-3.2-9.76-9-12.64-6.4-3.2-18.4-4.32-23.84-4.32-5.92,0-17.44.32-24.16,4.32S53,447,53,453s2.56,13.44,9.12,17.28c7,4.16,17.92,4.8,24.16,4.8,6.72,0,16.48-.48,23.84-4.8,4.64-2.72,7.52-8,8.64-12.64H172c-1.44,13.6-9.44,31.52-24,40-18.72,10.88-44,12.48-61.6,12.48-16.16,0-44.64-1.44-62.72-12.48C7,487.36,0,468.16,0,453,0,437.28,6.08,417.76,23.68,407.36Z"/><path class="cls-2" d="M242.88,427.2v8.64H328.8V467H242.88v9.76h87.68V508h-152V396h152v31.2Z"/></g></svg>