<?xml version="1.0" encoding="UTF-8"?>
<svg width="398px" height="511px" viewBox="0 0 398 511" version="1.1" xmlns="http://www.w3.org/2000/svg" xmlns:xlink="http://www.w3.org/1999/xlink">
    <!-- Generator: Sketch 59.1 (86144) - https://sketch.com -->
    <title>WEBDESIGN</title>
    <desc>Created with Sketch.</desc>
    <g id="Page-1" stroke="none" stroke-width="1" fill="none" fill-rule="evenodd">
        <g id="homeFinal" transform="translate(-1067.000000, -2178.000000)" fill="#1B1B1E" fill-rule="nonzero">
            <path d="M1230.36,2178 L1211,2232.24 L1194.84,2178 L1156.92,2178 L1140.76,2232.4 L1121.24,2178 L1068.6,2178 L1108.76,2290 L1161.56,2290 L1175.96,2241.84 L1190.2,2290 L1242.84,2290 L1283,2178 L1230.36,2178 Z M1439.8,2209.2 L1439.8,2178 L1287.8,2178 L1287.8,2290 L1439.8,2290 L1439.8,2258.8 L1352.12,2258.8 L1352.12,2249.04 L1438.04,2249.04 L1438.04,2217.84 L1352.12,2217.84 L1352.12,2209.2 L1439.8,2209.2 Z M1227,2364.88 C1223.8,2363.12 1219.8,2361.84 1215.8,2360.72 C1217.72,2360.08 1219.48,2359.12 1221.4,2358.16 C1230.2,2353.36 1232.44,2344.24 1232.44,2337.2 C1232.44,2329.52 1229.88,2321.36 1220.44,2315.92 C1210.40078,2311.21412 1194.0563,2310.04534 1183.76982,2310.00131 L1071.8,2310 L1071.8,2422 L1189.72,2422 C1207.48,2422 1217.72,2421.04 1227.96,2414.64 C1236.76,2409.04 1239,2398.32 1239,2390 C1239,2381.04 1236.44,2371.28 1227,2364.88 Z M1127.8,2347.44 L1127.8,2339.92 L1158.04,2339.92 C1161.08762,2339.92 1166.02186,2339.77488 1169.24916,2340.45212 L1169.72,2340.56 C1172.6,2341.2 1173.56,2342.48 1173.56,2343.44 C1173.56,2344.4 1172.44,2346.16 1169.72,2346.64 C1166.36,2347.28 1161.56,2347.28 1158.04,2347.28 L1127.8,2347.44 Z M1174.52,2387.44 C1170.68,2388.24 1165.4,2388.24 1161.4,2388.24 L1127.8,2388.24 L1127.8,2379.92 L1161.4,2379.92 C1165.08,2379.92 1170.84,2379.76 1174.52,2380.56 C1177.72,2381.36 1178.68,2382.8 1178.68,2383.92 C1178.68,2384.88 1177.56,2386.8 1174.52,2387.44 Z M1248.6,2422.16 L1344.44,2422.16 C1361.24,2422.16 1386.36,2418.48 1401.88,2407.12 C1415.48,2397.2 1420.6,2380.56 1420.6,2366 L1420.5945,2365.00941 C1420.42493,2349.82182 1416.28681,2334.73532 1401.88,2324.4 C1386.36,2314.48 1360.44,2309.84 1344.44,2309.84 L1248.6,2309.84 L1248.6,2422.16 Z M1304.44,2385.68 L1304.44,2346.32 L1338.04,2346.32 C1343.64,2346.32 1352.76,2347.92 1358.2,2351.44 C1363.32,2355.12 1364.76,2360.56 1364.76,2366 C1364.76,2371.12 1363,2377.04 1358.2,2380.4 C1352.76,2384.4 1343.96,2385.68 1338.04,2385.68 L1304.44,2385.68 Z M1222.2,2473.2 L1222.2,2442 L1070.2,2442 L1070.2,2554 L1222.2,2554 L1222.2,2522.8 L1134.52,2522.8 L1134.52,2513.04 L1220.44,2513.04 L1220.44,2481.84 L1134.52,2481.84 L1134.52,2473.2 L1222.2,2473.2 Z M1306.11141,2555.60403 L1315.68387,2555.60299 C1333.27611,2555.63085 1359.86486,2555.71676 1375,2549.36 C1395.96,2540.56 1400.76,2530.8 1400.76,2516.4 C1400.76,2498.32 1390.36,2485.36 1362.52,2483.6 L1360.83036,2483.49665 C1333.0809,2481.84467 1298.1584,2481.9168 1296.12,2477.84 C1294.2,2474 1304.28,2472.24 1313.24,2472.24 C1320.92,2472.24 1328.92,2475.76 1330.04,2479.6 L1394.36,2479.6 C1394.36,2468.56 1388.28,2458 1370.2,2448.56 C1356.00889,2441.12 1337.0721,2440.44259 1320.94976,2440.39794 L1310.1144,2440.39634 C1293.09371,2440.36819 1271.45538,2440.33354 1256.44,2446.64 C1235.48,2455.44 1228.6,2465.2 1228.6,2479.6 C1228.6,2497.36 1239.64,2510.8 1267.16,2512.72 L1268.48553,2512.80377 C1290.45427,2514.12986 1327.688,2513.4368 1330.04,2517.2 C1332.12,2520.56 1323.48,2523.76 1313.88,2523.76 C1305.24,2523.76 1297.24,2520.24 1296.12,2516.4 L1230.2,2516.4 C1230.2,2527.44 1236.28,2538 1254.36,2547.44 C1268.83568,2555.02919 1289.48374,2555.58186 1306.11141,2555.60403 L1306.11141,2555.60403 Z M1408.76,2442 L1408.76,2554 L1464.76,2554 L1464.76,2442 L1408.76,2442 Z M1153.72,2646.64 L1179.32,2646.64 C1178.68,2647.28 1177.88,2647.76 1177.08,2648.24 C1169.88356,2652.464 1160.39259,2653.01677 1153.69244,2653.03925 L1153.24,2653.04 C1147,2653.04 1136.12,2652.4 1129.08,2648.24 C1122.52,2644.4 1119.96,2636.88 1119.96,2630.96 C1119.96,2625.04 1122.36,2617.36 1129.08,2613.36 C1135.8,2609.36 1147.32,2609.04 1153.24,2609.04 C1158.68,2609.04 1170.84,2610.32 1177.08,2613.36 C1181.88,2615.76 1184.12,2618.64 1184.92,2622.16 L1239.16,2622.16 C1238.68,2610.48 1233.08,2594.8 1215,2585.36 C1198.52,2576.72 1169.72,2572.4 1153.4,2572.4 C1136.12,2572.4 1108.28,2574.96 1090.68,2585.36 C1073.08,2595.76 1067,2615.28 1067,2630.96 C1067,2646.16 1074.04,2665.36 1090.68,2675.6 C1108.55685,2686.51596 1136.60131,2688.04643 1152.85065,2688.08 L1153.4,2688.08 C1168.6,2688.08 1189.56,2686.96 1207,2679.6 L1207,2686 L1239,2686 L1239,2627.44 L1153.72,2627.44 L1153.72,2646.64 Z M1359.16,2574 L1415.16,2574 L1415.16,2686 L1359.16,2686 L1304.76,2630.8 L1304.76,2686 L1248.76,2686 L1248.76,2574 L1304.92,2574 L1359.16,2629.04 L1359.16,2574 Z" id="WEBDESIGN"></path>
        </g>
    </g>
</svg>