<?xml version="1.0" encoding="UTF-8"?>
<svg width="1010px" height="176px" viewBox="0 0 1010 176" version="1.1" xmlns="http://www.w3.org/2000/svg" xmlns:xlink="http://www.w3.org/1999/xlink">
    <!-- Generator: Sketch 58 (84663) - https://sketch.com -->
    <title>OurWork</title>
    <desc>Created with Sketch.</desc>
    <g id="Page-1" stroke="none" stroke-width="1" fill="none" fill-rule="evenodd">
        <g id="homeFinal" transform="translate(-122.000000, -226.000000)" fill-rule="nonzero" stroke="#656571" stroke-width="1.79999995">
            <path d="M290.096347,314.709239 C290.096347,365.30163 254.306916,401 206.429665,401 C159.737495,401 123,364.119565 123,314.709239 C123,264.826087 158.78943,227 206.192649,227 C254.0699,227 290.096347,264.589674 290.096347,314.709239 Z M255.491997,314.709239 C255.491997,281.611413 236.293693,259.861413 206.192649,259.861413 C177.03967,259.861413 157.60435,282.084239 157.60435,314.709239 C157.60435,346.861413 177.276686,368.138587 206.429665,368.138587 C236.767725,368.138587 255.491997,348.043478 255.491997,314.709239 Z M390.843,284.684783 L390.843,336.459239 C390.843,364.828804 375.67397,373.8125 362.638085,373.8125 C347.943087,373.8125 337.040347,362.464674 337.040347,341.1875 L337.040347,284.684783 L306.702287,284.684783 L306.702287,343.078804 C306.702287,389.179348 329.218816,401 358.845828,401 C373.777842,401 383.969534,394.853261 390.843,385.160326 L390.843,398.163043 L421.181061,398.163043 L421.181061,284.684783 L390.843,284.684783 Z M475.709576,297.6875 L475.709576,284.684783 L445.1345,284.684783 L445.371516,398.163043 L475.946592,398.163043 L475.946592,342.369565 C477.368688,321.092391 492.300702,306.19837 514.343199,312.345109 L514.343199,284.684783 C494.196831,283.502717 481.634978,288.230978 475.709576,297.6875 Z M785.282222,230.309783 L749.255776,348.516304 L711.570217,230.309783 L674.595706,230.309783 L636.910147,348.516304 L601.120717,230.309783 L564.146206,230.309783 L621.267085,398.163043 L652.079177,398.163043 L693.082962,282.557065 L734.086746,398.163043 L765.135854,398.163043 L822.256733,230.309783 L785.282222,230.309783 Z M926.558628,341.896739 C926.558628,308.798913 900.96089,281.138587 868.726701,281.138587 C836.255496,281.138587 810.420742,308.798913 810.420742,341.896739 C810.420742,374.048913 836.966544,401 868.726701,401 C900.96089,401 926.558628,374.994565 926.558628,341.896739 Z M895.983552,342.133152 C895.983552,359.154891 886.028876,372.394022 868.726701,372.394022 C851.661542,372.394022 840.995818,357.972826 840.995818,342.133152 C840.995818,325.111413 851.18751,310.453804 868.726701,310.453804 C885.79186,310.453804 895.983552,324.875 895.983552,342.133152 Z M973.502628,297.6875 L973.502628,284.684783 L942.927552,284.684783 L943.164568,398.163043 L973.739645,398.163043 L973.739645,342.369565 C975.161741,321.092391 990.093755,306.19837 1012.13625,312.345109 L1012.13625,284.684783 C991.989884,283.502717 979.428031,288.230978 973.502628,297.6875 Z M1129,284.684783 L1081.35976,333.858696 L1129,398.163043 L1094.63267,398.163043 L1062.16146,353.717391 L1056.23606,359.86413 L1056.23606,398.163043 L1025.18695,398.163043 L1025.18695,230.309783 L1056.23606,230.309783 L1056.23606,320.855978 L1091.31444,284.684783 L1129,284.684783 Z" id="OurWork"></path>
        </g>
    </g>
</svg>