<?xml version="1.0" encoding="UTF-8"?>
<svg width="14px" height="14px" viewBox="0 0 14 14" version="1.1" xmlns="http://www.w3.org/2000/svg" xmlns:xlink="http://www.w3.org/1999/xlink">
    <!-- Generator: Sketch 59.1 (86144) - https://sketch.com -->
    <title>Shape</title>
    <desc>Created with Sketch.</desc>
    <g id="Page-1" stroke="none" stroke-width="1" fill="none" fill-rule="evenodd">
        <g id="Footer" transform="translate(-230.000000, -88.000000)" fill="#E85C6B">
            <path d="M237,88 C233.13558,88 230,91.13558 230,95 C230,98.86442 233.13558,102 237,102 C240.856832,102 244,98.86442 244,95 C244,91.13558 240.856832,88 237,88 Z M241.62364,91.226678 C242.458782,92.24403 242.95987,93.542306 242.97506,94.946856 C242.77766,94.908888 240.803688,94.506514 238.81454,94.757044 C238.768984,94.658358 238.731016,94.552056 238.685474,94.445768 C238.563996,94.15727 238.427328,93.86117 238.290674,93.58026 C240.492412,92.684386 241.494574,91.393712 241.62364,91.226678 Z M237,89.0325378 C238.51844,89.0325378 239.907814,89.60195 240.96312,90.535792 C240.856832,90.687636 239.953356,91.8948 237.827554,92.691974 C236.848156,90.892624 235.76247,89.41974 235.59545,89.191974 C236.04338,89.0856832 236.514102,89.0325378 237,89.0325378 Z M234.45662,89.594362 C234.616052,89.806938 235.67896,91.287424 236.673534,93.048806 C233.87961,93.792836 231.412152,93.7776833 231.146421,93.7776833 C231.533616,91.925166 232.786336,90.383948 234.45662,89.594362 Z M231.017353,95.007588 C231.017353,94.946856 231.017353,94.886124 231.017353,94.825378 C231.275488,94.832966 234.17571,94.870934 237.159432,93.97506 C237.334054,94.309114 237.493486,94.650756 237.64533,94.992412 C237.569408,95.01519 237.485898,95.037968 237.409976,95.060732 C234.327554,96.05532 232.687636,98.773322 232.550982,99.001088 C231.60195,97.945768 231.017353,96.541218 231.017353,95.007588 Z M237,100.982648 C235.618228,100.982648 234.34273,100.511926 233.332966,99.72234 C233.439268,99.502176 234.65402,97.16377 238.02494,95.986986 C238.04013,95.979398 238.047718,95.979398 238.062908,95.971796 C238.905638,98.150756 239.247294,99.980472 239.338392,100.504338 C238.61714,100.815614 237.827554,100.982648 237,100.982648 Z M240.33298,99.957708 C240.272234,99.593274 239.95337,97.847068 239.171372,95.698488 C241.046644,95.402388 242.686548,95.888286 242.891536,95.95662 C242.633404,97.619302 241.676784,99.054232 240.33298,99.957708 Z" id="Shape"></path>
        </g>
    </g>
</svg>