<?xml version="1.0" encoding="UTF-8"?>
<svg width="15px" height="14px" viewBox="0 0 15 14" version="1.1" xmlns="http://www.w3.org/2000/svg" xmlns:xlink="http://www.w3.org/1999/xlink">
    <!-- Generator: Sketch 59.1 (86144) - https://sketch.com -->
    <title>Fill 1</title>
    <desc>Created with Sketch.</desc>
    <g id="Page-1" stroke="none" stroke-width="1" fill="none" fill-rule="evenodd">
        <g id="Footer" transform="translate(-333.000000, -88.000000)" fill="#E85C6B">
            <path d="M347.085559,95.0427794 C347.085559,91.1531569 343.932402,88 340.042779,88 C336.153157,88 333,91.1531569 333,95.0427794 C333,98.5580342 335.575443,101.471654 338.942345,102 L338.942345,97.0785828 L337.154139,97.0785828 L337.154139,95.0427794 L338.942345,95.0427794 L338.942345,93.491167 C338.942345,91.7260705 339.993783,90.7510857 341.602507,90.7510857 C342.373045,90.7510857 343.179017,90.88864 343.179017,90.88864 L343.179017,92.621824 L342.290939,92.621824 C341.416053,92.621824 341.143214,93.1647095 341.143214,93.7216668 L341.143214,95.0427794 L343.096485,95.0427794 L342.784236,97.0785828 L341.143214,97.0785828 L341.143214,102 C344.510116,101.471654 347.085559,98.5580342 347.085559,95.0427794" id="Fill-1"></path>
        </g>
    </g>
</svg>