<?xml version="1.0" encoding="UTF-8"?>
<svg width="14px" height="14px" viewBox="0 0 14 14" version="1.1" xmlns="http://www.w3.org/2000/svg" xmlns:xlink="http://www.w3.org/1999/xlink">
    <!-- Generator: Sketch 59.1 (86144) - https://sketch.com -->
    <title>Combined Shape</title>
    <desc>Created with Sketch.</desc>
    <g id="Page-1" stroke="none" stroke-width="1" fill="none" fill-rule="evenodd">
        <g id="Footer" transform="translate(-299.000000, -88.000000)" fill="#E85C6B">
            <path d="M306.885116,88.000907 C308.004571,88.00379 308.275217,88.014252 308.886091,88.0421244 C309.631159,88.0761073 310.140014,88.1944502 310.585266,88.3675048 C311.045578,88.5463668 311.435951,88.7857201 311.825129,89.1748706 C312.21428,89.564049 312.453633,89.9544221 312.632523,90.414734 C312.80555,90.8599856 312.923893,91.3688406 312.957876,92.113909 C312.991942,92.8605334 313,93.0989141 313,95.0000139 C313,96.9010859 312.991942,97.1394666 312.957876,97.886091 C312.923893,98.6311594 312.80555,99.1400144 312.632523,99.585266 C312.453633,100.045578 312.21428,100.435951 311.825129,100.825129 C311.435951,101.21428 311.045578,101.453633 310.585266,101.632523 C310.140014,101.80555 309.631159,101.923893 308.886091,101.957876 C308.139467,101.991942 307.901086,102 306.000014,102 C304.098914,102 303.860533,101.991942 303.113909,101.957876 C302.368841,101.923893 301.859986,101.80555 301.414734,101.632523 C300.954422,101.453633 300.564049,101.21428 300.174871,100.825129 C299.78572,100.435951 299.546367,100.045578 299.367505,99.585266 C299.19445,99.1400144 299.076107,98.6311594 299.042124,97.886091 C299.014252,97.2752165 299.00379,97.0045712 299.000907,95.8851157 L299.000907,94.1148995 C299.00379,92.9954288 299.014252,92.7247835 299.042124,92.113909 C299.076107,91.3688406 299.19445,90.8599856 299.367505,90.414734 C299.546367,89.9544221 299.78572,89.564049 300.174871,89.1748706 C300.564049,88.7857201 300.954422,88.5463668 301.414734,88.3675048 C301.859986,88.1944502 302.368841,88.0761073 303.113909,88.0421244 C303.724783,88.014252 303.995429,88.00379 305.1149,88.000907 Z M306.678203,89.2617066 L305.321814,89.2617066 C304.060933,89.2637 303.808868,89.2729925 303.171399,89.3020774 C302.488906,89.3331984 302.118262,89.4472343 301.8716,89.5430979 C301.544858,89.6700824 301.311674,89.8217692 301.066735,90.0667353 C300.821769,90.3116737 300.670082,90.5448584 300.543098,90.8716004 C300.447234,91.1182615 300.333198,91.4889062 300.302077,92.1713993 C300.272993,92.8088681 300.2637,93.0609332 300.261707,94.3218144 L300.261707,95.6782035 C300.2637,96.9390668 300.272993,97.1911319 300.302077,97.8286007 C300.333198,98.5110938 300.447234,98.8817385 300.543098,99.1283996 C300.670082,99.4551416 300.821797,99.6883263 301.066735,99.9332647 C301.311674,100.178231 301.544858,100.329918 301.8716,100.456902 C302.118262,100.552766 302.488906,100.666802 303.171399,100.697923 C303.808796,100.727007 304.06081,100.7363 305.321768,100.738293 L306.678251,100.738293 C307.939197,100.7363 308.191228,100.727007 308.828601,100.697923 C309.511094,100.666802 309.881738,100.552766 310.1284,100.456902 C310.455142,100.329918 310.688326,100.178231 310.933265,99.9332647 C311.178231,99.6883263 311.329918,99.4551416 311.456902,99.1283996 C311.552766,98.8817385 311.666802,98.5110938 311.697923,97.8286007 C311.727007,97.1911319 311.7363,96.9390668 311.738293,95.6782035 L311.738293,94.3218144 C311.7363,93.0609332 311.727007,92.8088681 311.697923,92.1713993 C311.666802,91.4889062 311.552766,91.1182615 311.456902,90.8716004 C311.329918,90.5448584 311.178231,90.3116737 310.933265,90.0667353 C310.688326,89.8217692 310.455142,89.6700824 310.1284,89.5430979 C309.881738,89.4472343 309.511094,89.3331984 308.828601,89.3020774 C308.191132,89.2729925 307.939067,89.2637 306.678203,89.2617066 Z M306.000014,91.4054077 C307.985251,91.4054077 309.594592,93.0147487 309.594592,95.0000139 C309.594592,96.9852513 307.985251,98.5945923 306.000014,98.5945923 C304.014749,98.5945923 302.405408,96.9852513 302.405408,95.0000139 C302.405408,93.0147487 304.014749,91.4054077 306.000014,91.4054077 Z M306.000014,92.6666667 C304.71133,92.6666667 303.666667,93.7113296 303.666667,95.0000139 C303.666667,96.2886704 304.71133,97.3333333 306.000014,97.3333333 C307.28867,97.3333333 308.333333,96.2886704 308.333333,95.0000139 C308.333333,93.7113296 307.28867,92.6666667 306.000014,92.6666667 Z M309.736609,90.4233756 C310.200534,90.4233756 310.576624,90.7994665 310.576624,91.2633906 C310.576624,91.7273148 310.200534,92.1033779 309.736609,92.1033779 C309.272713,92.1033779 308.896622,91.7273148 308.896622,91.2633906 C308.896622,90.7994665 309.272713,90.4233756 309.736609,90.4233756 Z" id="Combined-Shape"></path>
        </g>
    </g>
</svg>