<?xml version="1.0" encoding="UTF-8"?>
<svg width="14px" height="14px" viewBox="0 0 14 14" version="1.1" xmlns="http://www.w3.org/2000/svg" xmlns:xlink="http://www.w3.org/1999/xlink">
    <!-- Generator: Sketch 59.1 (86144) - https://sketch.com -->
    <title>Group</title>
    <desc>Created with Sketch.</desc>
    <g id="Page-1" stroke="none" stroke-width="1" fill="none" fill-rule="evenodd">
        <g id="Footer" transform="translate(-367.000000, -88.000000)" fill-rule="nonzero">
            <g id="Group" transform="translate(367.000000, 88.000000)">
                <rect id="Rectangle-path" fill="#E85C6B" x="0" y="0" width="14" height="14"></rect>
                <path d="M3.34090833,4.6821568 C3.35259348,4.56670359 3.30856615,4.45259094 3.22235629,4.37488656 L2.34419306,3.31699905 L2.34419306,3.15897436 L5.07088989,3.15897436 L7.17848165,7.78119655 L9.0314061,3.15897436 L11.6307692,3.15897436 L11.6307692,3.31699905 L10.8799397,4.03688931 C10.8152099,4.08623009 10.7831007,4.16732516 10.7965142,4.2475889 L10.7965142,9.53702651 C10.7831007,9.61729024 10.8152099,9.69838527 10.8799397,9.74772608 L11.613206,10.4676163 L11.613206,10.625641 L7.92492041,10.625641 L7.92492041,10.4676163 L8.68453162,9.73016778 C8.75917546,9.65554498 8.75917546,9.63359715 8.75917546,9.51946822 L8.75917546,5.24402237 L6.64719289,10.6080827 L6.36178985,10.6080827 L3.90293279,5.24402237 L3.90293279,8.83908408 C3.88243174,8.99023059 3.93263015,9.14240205 4.0390481,9.25170414 L5.02698173,10.4500581 L5.02698173,10.6080827 L2.22564103,10.6080827 L2.22564103,10.4500581 L3.21357466,9.25170414 C3.31921779,9.14222084 3.36648909,8.98903995 3.34090833,8.83908408 L3.34090833,4.6821568 Z" id="Shape" fill="#FFFFFF"></path>
            </g>
        </g>
    </g>
</svg>