<?xml version="1.0" encoding="UTF-8"?>
<svg width="18px" height="14px" viewBox="0 0 18 14" version="1.1" xmlns="http://www.w3.org/2000/svg" xmlns:xlink="http://www.w3.org/1999/xlink">
    <!-- Generator: Sketch 59.1 (86144) - https://sketch.com -->
    <title>Path</title>
    <desc>Created with Sketch.</desc>
    <g id="Page-1" stroke="none" stroke-width="1" fill="none" fill-rule="evenodd">
        <g id="Footer" transform="translate(-264.000000, -88.000000)" fill="#E85C6B" fill-rule="nonzero">
            <path d="M269.41834,102 C275.920073,102 279.476247,96.6133619 279.476247,91.9420936 C279.476247,91.7890954 279.476247,91.6367864 279.465909,91.4851666 C280.157731,90.9847598 280.754922,90.3651645 281.229523,89.6553912 C280.584366,89.9412647 279.899975,90.1287404 279.199196,90.2115603 C279.937132,89.7697829 280.489428,89.0749438 280.753299,88.256354 C280.059402,88.6681088 279.300262,88.958293 278.508637,89.1143842 C277.412896,87.949251 275.671775,87.6640805 274.261593,88.4187801 C272.851412,89.1734796 272.122876,90.780359 272.484506,92.3383726 C269.642252,92.1958841 266.99413,90.8534105 265.199175,88.645052 C264.26094,90.2602472 264.740172,92.3265597 266.293594,93.3638738 C265.731044,93.3472008 265.180759,93.1954471 264.689181,92.9214197 C264.689181,92.9358925 264.689181,92.9510544 264.689181,92.9662164 C264.689641,94.6489157 265.875779,96.0982234 267.52516,96.4314181 C267.004739,96.5733481 266.458708,96.5940953 265.929017,96.492066 C266.392111,97.9320564 267.719216,98.9185231 269.231572,98.9469285 C267.979837,99.9306874 266.433539,100.464731 264.84149,100.463127 C264.560238,100.462587 264.279259,100.445558 264,100.412127 C265.616568,101.449535 267.497534,101.999805 269.41834,101.997243" id="Path"></path>
        </g>
    </g>
</svg>