<?xml version="1.0" encoding="UTF-8"?>
<svg width="910px" height="165px" viewBox="0 0 910 165" version="1.1" xmlns="http://www.w3.org/2000/svg" xmlns:xlink="http://www.w3.org/1999/xlink">
    <!-- Generator: Sketch 56.2 (81672) - https://sketch.com -->
    <title>AboutUs</title>
    <desc>Created with Sketch.</desc>
    <g id="About" stroke="none" stroke-width="1" fill="none" fill-rule="evenodd">
        <g id="About-Us-1" transform="translate(-109.000000, -207.000000)" fill-rule="nonzero" stroke="#656571" stroke-width="1.79999995">
            <path d="M234.913454,367.407713 L220.745491,329.688705 L160.475426,329.688705 L146.082575,367.407713 L111,367.407713 L174.643389,208 L206.577528,208 L270.220917,367.407713 L234.913454,367.407713 Z M170.370511,303.195592 L210.625517,303.195592 L190.610458,250.209366 L170.370511,303.195592 Z M346.832864,255.822314 C372.919907,256.046832 399.231838,276.702479 398.107397,315.544077 C396.533179,352.365014 371.570578,369.652893 346.832864,370.101928 C333.564455,370.326446 320.296045,365.61157 310.625848,355.732782 L310.625848,367.407713 L280.940592,367.407713 L280.940592,208 L310.625848,208 L310.625848,271.089532 C320.296045,260.53719 333.564455,255.597796 346.832864,255.822314 Z M340.985769,344.955923 C355.153732,344.731405 369.321695,335.301653 369.996359,313.747934 C369.996359,291.745179 355.603508,280.96832 340.985769,280.96832 C326.592917,280.96832 312.200066,291.520661 311.75029,312.625344 C310.850736,334.628099 325.918253,345.180441 340.985769,344.955923 Z M516.098792,313.972452 C516.098792,345.404959 491.810856,370.101928 461.226047,370.101928 C431.091014,370.101928 405.903525,344.506887 405.903525,313.972452 C405.903525,282.539945 430.416349,256.27135 461.226047,256.27135 C491.810856,256.27135 516.098792,282.539945 516.098792,313.972452 Z M487.088201,314.19697 C487.088201,297.807163 477.418004,284.11157 461.226047,284.11157 C444.584312,284.11157 434.914116,298.03168 434.914116,314.19697 C434.914116,329.239669 445.034089,342.935262 461.226047,342.935262 C477.642893,342.935262 487.088201,330.362259 487.088201,314.19697 Z M610.926692,259.639118 L639.712395,259.639118 L639.712395,367.407713 L610.926692,367.407713 L610.926692,355.059229 C604.404931,364.264463 594.734734,370.101928 580.566771,370.101928 C552.455734,370.101928 531.091345,358.876033 531.091345,315.095041 L531.091345,259.639118 L559.877048,259.639118 L559.877048,313.298898 C559.877048,333.50551 570.22191,344.282369 584.164984,344.282369 C596.533841,344.282369 610.926692,335.750689 610.926692,308.80854 L610.926692,259.639118 Z M719.023002,283.662534 L698.333278,283.662534 L698.333278,332.607438 C698.333278,340.690083 702.831044,340.690083 708.67814,340.690083 L719.023002,340.914601 L719.023002,367.407713 L692.711071,367.183196 C675.844448,367.183196 668.648023,354.610193 668.648023,337.097796 L668.648023,283.662534 L650.207182,283.662534 L650.207182,259.639118 L668.648023,259.639118 L668.648023,225.512397 L698.10839,225.512397 L698.10839,259.639118 L719.023002,259.639118 L719.023002,283.662534 Z M884.165977,208 L913.626345,208 L913.626345,309.482094 C913.626345,347.201102 883.041536,371 849.533179,371 C816.24971,371 785.664902,347.201102 785.664902,309.482094 L785.664902,208 L815.125269,208 L815.125269,309.482094 C815.125269,329.688705 833.790998,341.588154 849.533179,341.588154 C865.500248,341.588154 884.165977,329.688705 884.165977,309.482094 L884.165977,208 Z M1017,284.785124 L990.013404,290.847107 C988.214298,284.785124 982.816978,280.743802 973.596558,280.743802 C966.400132,280.743802 962.127255,284.336088 961.002813,288.152893 C960.10326,291.969697 962.352143,296.011019 968.424127,297.582645 C976.520106,299.827824 985.29075,302.073003 990.463181,303.42011 C1010.02846,308.359504 1016.10045,320.483471 1016.10045,335.975207 C1016.10045,356.406336 998.784048,370.101928 975.170776,370.101928 C952.007281,370.101928 932.441999,357.304408 929.293563,338.669421 L956.954824,334.179063 C958.079265,340.241047 965.050803,345.404959 975.170776,345.404959 C983.716532,345.404959 988.439186,342.486226 988.439186,336.64876 C988.439186,333.50551 986.415191,330.811295 979.443654,329.239669 C967.97435,326.545455 959.653483,324.075758 958.75393,323.85124 C943.011749,319.360882 933.566441,307.012397 933.566441,291.520661 C933.566441,271.538567 951.107728,256.046832 973.596558,256.046832 C995.410723,256.046832 1012.72712,267.272727 1017,284.785124 Z" id="AboutUs"></path>
        </g>
    </g>
</svg>